<svg height="512" viewBox="0 0 58 58" width="512" xmlns="http://www.w3.org/2000/svg"><g id="038---Global-Language" fill="none"><circle id="Oval" cx="29" cy="29" fill="#3b97d3" r="25"/><path id="Shape" d="m53.25 35.06c-2.6702622 10.7355367-12.0786802 18.4396197-23.13 18.94v-1.5c.0053243-.9264138-.3589657-1.8167121-1.0121703-2.4736707-.6532045-.6569586-1.5414006-1.0263446-2.4678297-1.0263293h-1.16c-1.4276853.0125018-2.7198503-.8434343-3.2652313-2.1629044s-.2346378-2.8379416.7852313-3.8370956c.6537336-.6482016 1.5394214-1.0082373 2.46-1h5.8c1.0694935.0126598 2.0833224-.4757541 2.74-1.32l2.43-5.16c.5421132-.3408 1.169664-.5210908 1.81-.52 16.32 0 14.65 0 15.01.06z" fill="#4fba6f"/><path id="Shape" d="m53.91 27h-12.15c-.9264291.0000153-1.8146252-.3693707-2.4678297-1.0263293-.6532046-.6569586-1.0174946-1.5472569-1.0121703-2.4736707.0000314-1.925213-1.5548184-3.4889988-3.48-3.5h-1.16c-1.9329966 0-3.5-1.5670034-3.5-3.5s1.5670034-3.5 3.5-3.5h5.8c.9264291.0000153 1.8146252-.3693707 2.4678297-1.0263293.6532046-.6569586 1.0174946-1.5472569 1.0121703-2.4736707.0004565-.38784248.064645-.77297394.19-1.14 6.2373138 4.2569418 10.208918 11.1116364 10.8 18.64z" fill="#4fba6f"/><path id="Shape" d="m27.84 33.5c.0053243.9264138-.3589657 1.8167121-1.0121703 2.4736707-.6532045.6569586-1.5414006 1.0263446-2.4678297 1.0263293h-19c-2.73892214-8.1127551-1.13529333-17.0628906 4.25-23.72l11.39.72 2 7c-2.32 2.35-1.37 2-7.92 2-1.9329966.0000001-3.4999999 1.5670034-3.4999999 3.5s1.5670033 3.4999999 3.4999999 3.5h9.28c.9264291-.0000153 1.8146252.3693707 2.4678297 1.0263293.6532046.6569586 1.0174946 1.5472569 1.0121703 2.4736707z" fill="#4fba6f"/><path id="Shape" d="m24 2v21l-8-5h-14c-1.1045695 0-2-.8954305-2-2v-14c0-1.1045695.8954305-2 2-2h20c1.1045695 0 2 .8954305 2 2z" fill="#955ba5"/><g fill="#fff"><path id="Shape" d="m6 6h-1c-.55228475 0-1-.44771525-1-1s.44771525-1 1-1h1c.55228475 0 1 .44771525 1 1s-.44771525 1-1 1z"/><path id="Shape" d="m19 6h-9c-.55228475 0-1-.44771525-1-1s.44771525-1 1-1h9c.5522847 0 1 .44771525 1 1s-.4477153 1-1 1z"/><path id="Shape" d="m15 10h-10c-.55228475 0-1-.44771525-1-1s.44771525-1 1-1h10c.5522847 0 1 .44771525 1 1s-.4477153 1-1 1z"/><path id="Shape" d="m19 14h-14c-.55228475 0-1-.4477153-1-1s.44771525-1 1-1h14c.5522847 0 1 .4477153 1 1s-.4477153 1-1 1z"/></g><path id="Shape" d="m34 56v-21l8 5h14c1.1045695 0 2 .8954305 2 2v14c0 1.1045695-.8954305 2-2 2h-20c-1.1045695 0-2-.8954305-2-2z" fill="#955ba5"/><path id="Shape" d="m54 50h-16c-.5522847 0-1-.4477153-1-1s.4477153-1 1-1h16c.5522847 0 1 .4477153 1 1s-.4477153 1-1 1z" fill="#fff"/><path id="Shape" d="m40 54h-2c-.5522847 0-1-.4477153-1-1s.4477153-1 1-1h2c.5522847 0 1 .4477153 1 1s-.4477153 1-1 1z" fill="#fff"/><path id="Shape" d="m54 54h-10c-.5522847 0-1-.4477153-1-1s.4477153-1 1-1h10c.5522847 0 1 .4477153 1 1s-.4477153 1-1 1z" fill="#fff"/><path id="Shape" d="m48 46h-10c-.5522847 0-1-.4477153-1-1s.4477153-1 1-1h10c.5522847 0 1 .4477153 1 1s-.4477153 1-1 1z" fill="#fff"/></g></svg>